<?xml version="1.0" encoding="UTF-8" standalone="no"?>
<!-- Generator: Adobe Illustrator 13.0.1, SVG Export Plug-In . SVG Version: 6.00 Build 14948)  -->
<svg
   xmlns:dc="http://purl.org/dc/elements/1.1/"
   xmlns:cc="http://web.resource.org/cc/"
   xmlns:rdf="http://www.w3.org/1999/02/22-rdf-syntax-ns#"
   xmlns:svg="http://www.w3.org/2000/svg"
   xmlns="http://www.w3.org/2000/svg"
   xmlns:sodipodi="http://sodipodi.sourceforge.net/DTD/sodipodi-0.dtd"
   xmlns:inkscape="http://www.inkscape.org/namespaces/inkscape"
   version="1.0"
   id="Layer_1"
   x="0px"
   y="0px"
   width="720"
   height="720"
   viewBox="0 0 5.094 5.094"
   enable-background="new 0 0 5.094 5.094"
   xml:space="preserve"
   sodipodi:version="0.32"
   inkscape:version="0.45.1"
   sodipodi:docname="FDICSeal.svg"
   sodipodi:docbase="/Users/lindberg/Projects/Wiki/seals"
   inkscape:output_extension="org.inkscape.output.svg.inkscape"><metadata
   id="metadata254"><rdf:RDF><cc:Work
       rdf:about=""><dc:format>image/svg+xml</dc:format><dc:type
         rdf:resource="http://purl.org/dc/dcmitype/StillImage" /></cc:Work></rdf:RDF></metadata><defs
   id="defs252">
	
	
</defs><sodipodi:namedview
   inkscape:window-height="581"
   inkscape:window-width="697"
   inkscape:pageshadow="2"
   inkscape:pageopacity="0.0"
   guidetolerance="10.0"
   gridtolerance="10.0"
   objecttolerance="10.0"
   borderopacity="1.0"
   bordercolor="#666666"
   pagecolor="#ffffff"
   id="base"
   inkscape:showpageshadow="false"
   width="720px"
   height="720px"
   inkscape:zoom="0.4099283"
   inkscape:cx="310.40571"
   inkscape:cy="390.9076"
   inkscape:window-x="58"
   inkscape:window-y="22"
   inkscape:current-layer="Layer_1" />
<polyline
   points="1.969,1.096 1.969,1.431 1.896,1.431 1.896,1.175 1.869,1.175 1.902,1.096 1.969,1.096 "
   id="polyline3"
   style="fill:#000000;fill-opacity:1" />
<path
   d="M 2.137,1.199 C 2.137,1.268 2.201,1.324 2.279,1.324 C 2.311,1.324 2.341,1.315 2.364,1.3 C 2.32,1.412 2.203,1.367 2.179,1.358 L 2.148,1.419 C 2.186,1.457 2.442,1.481 2.442,1.238 C 2.442,1.21 2.421,1.075 2.279,1.075 L 2.279,1.135 C 2.32,1.135 2.36,1.164 2.36,1.199 C 2.36,1.235 2.32,1.264 2.279,1.264 C 2.239,1.264 2.206,1.235 2.206,1.199 C 2.206,1.164 2.239,1.135 2.279,1.135 L 2.279,1.075 C 2.201,1.075 2.137,1.131 2.137,1.199"
   id="path5"
   style="fill:#000000;fill-opacity:1" />
<path
   d="M 2.664,1.446 C 2.588,1.446 2.544,1.412 2.532,1.397 L 2.576,1.353 C 2.596,1.365 2.631,1.387 2.655,1.387 C 2.679,1.387 2.724,1.376 2.724,1.338 C 2.724,1.32 2.707,1.289 2.636,1.298 L 2.636,1.24 C 2.71,1.247 2.728,1.22 2.728,1.196 C 2.728,1.171 2.701,1.151 2.667,1.151 C 2.641,1.151 2.615,1.166 2.594,1.19 L 2.545,1.141 C 2.567,1.108 2.612,1.085 2.664,1.085 C 2.738,1.085 2.793,1.13 2.793,1.187 C 2.793,1.217 2.781,1.243 2.754,1.262 C 2.783,1.279 2.795,1.315 2.795,1.338 C 2.795,1.394 2.745,1.446 2.664,1.446"
   id="path7"
   style="fill:#000000;fill-opacity:1" />
<path
   d="M 3.026,1.446 C 2.95,1.446 2.906,1.412 2.894,1.397 L 2.938,1.353 C 2.958,1.365 2.993,1.387 3.017,1.387 C 3.041,1.387 3.086,1.376 3.086,1.338 C 3.086,1.32 3.069,1.289 2.998,1.298 L 2.998,1.24 C 3.072,1.247 3.09,1.22 3.09,1.196 C 3.09,1.171 3.063,1.151 3.029,1.151 C 3.003,1.151 2.978,1.166 2.956,1.19 L 2.907,1.141 C 2.929,1.108 2.974,1.085 3.026,1.085 C 3.1,1.085 3.155,1.13 3.155,1.187 C 3.155,1.217 3.143,1.243 3.116,1.262 C 3.145,1.279 3.157,1.315 3.157,1.338 C 3.157,1.394 3.107,1.446 3.026,1.446"
   id="path9"
   style="fill:#000000;fill-opacity:1" />
<path
   d="M 1.942,3.639 L 1.942,3.447 L 1.905,3.447 L 1.905,3.677 L 2.029,3.677 L 2.029,3.588 L 2.091,3.588 L 2.091,3.677 L 2.215,3.677 L 2.215,3.447 L 2.272,3.447 C 2.341,3.447 2.341,3.482 2.386,3.482 C 2.42,3.482 2.431,3.447 2.456,3.447 C 2.481,3.447 2.488,3.491 2.52,3.491 C 2.552,3.491 2.56,3.447 2.585,3.447 C 2.609,3.447 2.621,3.482 2.655,3.482 C 2.7,3.482 2.713,3.447 2.781,3.447 C 2.819,3.447 2.842,3.464 2.842,3.508 C 2.842,3.583 2.903,3.644 2.978,3.644 C 3.053,3.644 3.114,3.583 3.114,3.508 L 3.114,3.312 C 3.114,3.237 3.053,3.176 2.978,3.176 L 2.979,3.224 C 3.024,3.224 3.06,3.26 3.06,3.305 C 3.06,3.377 3.03,3.41 3.03,3.41 C 3.03,3.41 3.06,3.443 3.06,3.515 C 3.06,3.56 3.024,3.596 2.979,3.596 C 2.934,3.596 2.898,3.56 2.898,3.515 C 2.898,3.443 2.928,3.41 2.928,3.41 C 2.928,3.41 2.898,3.377 2.898,3.305 C 2.898,3.26 2.934,3.224 2.979,3.224 L 2.978,3.176 C 2.903,3.176 2.842,3.237 2.842,3.312 C 2.842,3.356 2.819,3.374 2.781,3.374 C 2.713,3.374 2.7,3.338 2.655,3.338 C 2.621,3.338 2.609,3.371 2.585,3.371 C 2.56,3.371 2.552,3.33 2.52,3.33 C 2.488,3.33 2.481,3.371 2.456,3.371 C 2.431,3.371 2.42,3.338 2.386,3.338 C 2.341,3.338 2.341,3.374 2.272,3.374 C 2.204,3.374 1.847,3.374 1.847,3.374 L 1.847,3.447 L 2.178,3.447 L 2.178,3.639 L 2.128,3.639 L 2.128,3.551 L 1.992,3.551 L 1.992,3.639 L 1.942,3.639"
   id="path11"
   style="fill:#000000;fill-opacity:1" />
<path
   d="M 4.269,2.547 C 4.269,3.498 3.498,4.269 2.547,4.269 L 2.547,4.183 C 3.45,4.183 4.183,3.45 4.183,2.547 C 4.183,1.643 3.45,0.911 2.547,0.911 C 1.643,0.911 0.911,1.643 0.911,2.547 C 0.911,3.45 1.643,4.183 2.547,4.183 L 2.547,4.269 C 1.596,4.269 0.825,3.498 0.825,2.547 C 0.825,1.596 1.596,0.825 2.547,0.825 C 3.498,0.825 4.269,1.596 4.269,2.547"
   id="path13"
   style="fill:#000000;fill-opacity:1" />
<path
   style="fill:#000000;fill-opacity:1"
   id="path17"
   d="M 4.317,2.547 C 4.317,1.569 3.524,0.777 2.547,0.777 C 1.569,0.777 0.777,1.569 0.777,2.547 C 0.777,3.524 1.569,4.317 2.547,4.317 L 2.547,4.359 C 1.546,4.359 0.735,3.547 0.735,2.547 C 0.735,1.546 1.546,0.735 2.547,0.735 C 3.547,0.735 4.358,1.546 4.358,2.547 C 4.358,3.547 3.547,4.359 2.547,4.359 L 2.547,4.317 C 3.524,4.317 4.317,3.524 4.317,2.547" /><path
   style="fill:#000000;fill-opacity:1"
   id="path19"
   d="M 5.01,2.547 C 5.01,3.907 3.907,5.01 2.547,5.01 L 2.547,5.094 C 3.953,5.094 5.094,3.954 5.094,2.547 C 5.094,1.14 3.953,0 2.547,0 C 1.14,0 0,1.14 0,2.547 C 0,3.954 1.14,5.094 2.547,5.094 L 2.547,5.01 C 1.187,5.01 0.084,3.907 0.084,2.547 C 0.084,1.187 1.187,0.084 2.547,0.084 C 3.907,0.084 5.01,1.187 5.01,2.547" />
<path
   d="M 4.956,2.547 C 4.956,1.216 3.878,0.137 2.547,0.137 C 1.216,0.137 0.137,1.216 0.137,2.547 C 0.137,3.878 1.216,4.957 2.547,4.957 L 2.547,4.913 C 1.24,4.913 0.181,3.853 0.181,2.547 C 0.181,1.24 1.24,0.181 2.547,0.181 C 3.853,0.181 4.913,1.24 4.913,2.547 C 4.913,3.853 3.853,4.913 2.547,4.913 L 2.547,4.957 C 3.878,4.957 4.956,3.878 4.956,2.547"
   id="path21"
   style="fill:#000000;fill-opacity:1" />
<path
   d="M 2.094,0.326 L 2.29,0.662 C 2.262,0.665 2.232,0.67 2.203,0.677 L 2.168,0.617 L 2.061,0.641 L 2.068,0.557 L 2.126,0.544 L 2.076,0.458 L 2.068,0.557 L 2.061,0.641 L 2.055,0.71 C 2.026,0.717 1.997,0.725 1.97,0.735 L 2.002,0.347 L 2.094,0.326"
   id="path23"
   style="fill:#000000;fill-opacity:1" />
<path
   d="M 4.133,0.982 L 4.023,1.079 C 4.009,1.092 4.008,1.113 4.02,1.127 L 4.101,1.219 L 4.053,1.261 L 3.949,1.144 L 3.891,1.195 L 4.018,1.339 C 4.033,1.356 4.06,1.358 4.078,1.342 L 4.188,1.249 C 4.202,1.237 4.204,1.215 4.191,1.201 L 4.109,1.108 L 4.157,1.067 L 4.262,1.186 L 4.323,1.134 L 4.193,0.986 C 4.178,0.969 4.151,0.967 4.133,0.982"
   id="path25"
   style="fill:#000000;fill-opacity:1" />
<path
   d="M 0.838,1.712 C 0.827,1.734 0.816,1.757 0.805,1.781 L 0.478,1.619 L 0.581,1.412 L 0.652,1.449 L 0.585,1.584 L 0.641,1.612 L 0.698,1.496 L 0.769,1.533 L 0.712,1.648 L 0.838,1.712"
   id="path27"
   style="fill:#000000;fill-opacity:1" />
<path
   d="M 4.033,0.834 C 4.055,0.851 4.058,0.882 4.04,0.903 L 3.87,1.111 C 3.852,1.132 3.821,1.135 3.8,1.118 C 3.769,1.093 3.741,1.065 3.733,1.059 C 3.726,1.053 3.697,1.031 3.668,1.009 C 3.646,0.993 3.643,0.96 3.661,0.939 L 3.83,0.732 C 3.848,0.71 3.879,0.707 3.9,0.725 L 3.874,0.804 L 3.741,0.965 L 3.83,1.037 L 3.962,0.876 L 3.874,0.804 L 3.9,0.725 L 4.033,0.834"
   id="path29"
   style="fill:#000000;fill-opacity:1" />
<path
   d="M 1.738,0.673 L 1.666,0.705 L 1.634,0.631 L 1.713,0.596 C 1.722,0.592 1.727,0.58 1.722,0.57 L 1.712,0.548 C 1.708,0.539 1.696,0.534 1.687,0.539 L 1.608,0.574 L 1.634,0.631 L 1.666,0.705 L 1.724,0.832 C 1.695,0.846 1.672,0.858 1.649,0.869 L 1.499,0.535 L 1.716,0.438 C 1.733,0.43 1.754,0.438 1.762,0.456 L 1.811,0.566 C 1.818,0.582 1.811,0.601 1.794,0.608 C 1.793,0.608 1.793,0.61 1.793,0.611 C 1.794,0.612 1.795,0.612 1.796,0.612 C 1.812,0.604 1.831,0.612 1.838,0.628 C 1.848,0.651 1.878,0.717 1.881,0.723 C 1.884,0.729 1.89,0.748 1.912,0.745 L 1.915,0.751 C 1.887,0.761 1.86,0.772 1.829,0.785 C 1.818,0.781 1.811,0.773 1.806,0.761 C 1.801,0.75 1.784,0.704 1.776,0.687 C 1.769,0.672 1.752,0.666 1.738,0.673"
   id="path31"
   style="fill:#000000;fill-opacity:1" />
<path
   d="M 2.589,0.646 L 2.588,0.566 L 2.44,0.572 L 2.429,0.285 L 2.352,0.288 L 2.366,0.652 C 2.444,0.647 2.517,0.645 2.589,0.646"
   id="path33"
   style="fill:#000000;fill-opacity:1" />
<path
   d="M 1.007,1.3 L 1.071,1.347 C 1.026,1.404 0.983,1.462 0.94,1.528 L 0.642,1.317 L 0.776,1.129 L 0.84,1.176 L 0.753,1.299 L 0.804,1.336 L 0.879,1.23 L 0.943,1.278 L 0.869,1.383 L 0.921,1.42 L 1.007,1.3"
   id="path35"
   style="fill:#000000;fill-opacity:1" />
<path
   d="M 1.121,1.288 L 0.86,1.026 L 0.895,0.991 L 0.971,1.026 L 1.117,1.174 L 1.199,1.093 L 1.052,0.946 L 0.971,1.026 L 0.895,0.991 L 1.017,0.87 C 1.036,0.851 1.067,0.851 1.087,0.87 L 1.276,1.061 C 1.295,1.081 1.295,1.113 1.275,1.132 C 1.247,1.16 1.217,1.185 1.21,1.192 C 1.204,1.199 1.146,1.261 1.121,1.288"
   id="path37"
   style="fill:#000000;fill-opacity:1" />
<path
   d="M 1.522,0.852 L 1.566,0.918 C 1.504,0.956 1.444,0.997 1.381,1.044 L 1.173,0.743 L 1.363,0.612 L 1.407,0.679 L 1.283,0.765 L 1.319,0.817 L 1.425,0.743 L 1.469,0.81 L 1.364,0.883 L 1.4,0.936 L 1.522,0.852"
   id="path39"
   style="fill:#000000;fill-opacity:1" />
<path
   d="M 2.75,0.653 L 2.814,0.289 L 2.863,0.298 L 2.878,0.38 L 2.841,0.585 L 2.954,0.605 L 2.99,0.4 L 2.878,0.38 L 2.863,0.298 L 3.032,0.328 C 3.059,0.332 3.077,0.358 3.072,0.385 L 3.024,0.65 C 3.02,0.677 2.994,0.695 2.967,0.69 C 2.928,0.683 2.89,0.673 2.88,0.671 C 2.871,0.67 2.787,0.658 2.75,0.653"
   id="path41"
   style="fill:#000000;fill-opacity:1" />
<path
   d="M 3.343,0.732 L 3.314,0.806 C 3.247,0.777 3.18,0.751 3.105,0.727 L 3.232,0.384 L 3.448,0.465 L 3.419,0.539 L 3.278,0.487 L 3.256,0.545 L 3.377,0.591 L 3.348,0.665 L 3.227,0.62 L 3.204,0.681 L 3.343,0.732"
   id="path43"
   style="fill:#000000;fill-opacity:1" />
<path
   d="M 3.511,0.744 L 3.551,0.673 L 3.628,0.716 C 3.637,0.721 3.649,0.718 3.655,0.708 L 3.667,0.687 C 3.672,0.677 3.669,0.665 3.659,0.66 L 3.583,0.617 L 3.551,0.673 L 3.511,0.744 L 3.441,0.868 C 3.413,0.853 3.389,0.841 3.366,0.829 L 3.549,0.505 L 3.759,0.623 C 3.776,0.633 3.782,0.654 3.772,0.671 L 3.694,0.809 C 3.685,0.825 3.665,0.831 3.65,0.822 L 3.511,0.744"
   id="path45"
   style="fill:#000000;fill-opacity:1" />
<path
   d="M 4.102,1.451 L 4.405,1.247 L 4.448,1.311 L 4.146,1.515 C 4.139,1.504 4.131,1.493 4.124,1.482 C 4.117,1.472 4.11,1.461 4.102,1.451"
   id="path47"
   style="fill:#000000;fill-opacity:1" />
<path
   d="M 4.51,1.582 L 4.256,1.712 C 4.25,1.7 4.244,1.689 4.238,1.677 C 4.232,1.666 4.227,1.655 4.221,1.643 L 4.475,1.513 L 4.438,1.442 L 4.509,1.406 L 4.617,1.616 L 4.546,1.652 L 4.51,1.582"
   id="path49"
   style="fill:#000000;fill-opacity:1" />
<polyline
   points="0.508,1.901 0.505,1.999 0.596,2.036 0.501,2.063 0.494,2.161 0.439,2.08 0.344,2.103 0.404,2.026   0.352,1.942 0.445,1.975 0.508,1.901 "
   id="polyline51"
   style="fill:#000000;fill-opacity:1" />
<polyline
   points="4.586,1.901 4.589,1.999 4.498,2.036 4.592,2.063 4.599,2.161 4.654,2.08 4.75,2.103 4.689,2.026   4.741,1.942 4.649,1.975 4.586,1.901 "
   id="polyline53"
   style="fill:#000000;fill-opacity:1" />
<path
   d="M 1.706,4.546 L 1.696,4.566 L 1.593,4.519 L 1.678,4.329 L 1.783,4.377 L 1.773,4.397 L 1.844,4.43 L 1.866,4.38 C 1.877,4.355 1.866,4.326 1.841,4.314 C 1.805,4.298 1.769,4.283 1.76,4.279 C 1.751,4.275 1.719,4.261 1.686,4.244 C 1.662,4.231 1.631,4.243 1.62,4.269 L 1.509,4.512 C 1.497,4.537 1.508,4.567 1.533,4.578 L 1.69,4.649 C 1.715,4.661 1.744,4.65 1.755,4.625 L 1.776,4.578 L 1.706,4.546"
   id="path55"
   style="fill:#000000;fill-opacity:1" />
<path
   d="M 0.651,2.467 L 0.287,2.444 L 0.292,2.367 L 0.656,2.39 C 0.654,2.403 0.653,2.416 0.653,2.429 C 0.652,2.442 0.651,2.454 0.651,2.467"
   id="path57"
   style="fill:#000000;fill-opacity:1" />
<path
   d="M 0.637,2.921 L 0.495,2.958 C 0.477,2.963 0.466,2.982 0.471,2.999 L 0.502,3.119 L 0.44,3.134 L 0.4,2.983 L 0.325,3.003 L 0.374,3.188 C 0.38,3.211 0.404,3.224 0.426,3.218 L 0.567,3.184 C 0.584,3.179 0.595,3.161 0.591,3.143 L 0.559,3.023 L 0.621,3.007 L 0.661,3.161 L 0.739,3.141 L 0.689,2.952 C 0.683,2.929 0.66,2.915 0.637,2.921"
   id="path59"
   style="fill:#000000;fill-opacity:1" />
<path
   d="M 0.452,2.795 L 0.662,2.774 C 0.663,2.787 0.664,2.8 0.666,2.812 C 0.667,2.826 0.668,2.839 0.67,2.852 L 0.307,2.886 L 0.3,2.809 L 0.514,2.646 L 0.285,2.653 L 0.283,2.576 L 0.647,2.565 C 0.647,2.578 0.648,2.591 0.648,2.604 C 0.648,2.617 0.649,2.63 0.65,2.643 L 0.452,2.795"
   id="path61"
   style="fill:#000000;fill-opacity:1" />
<path
   d="M 0.519,3.542 C 0.53,3.567 0.559,3.579 0.584,3.568 L 0.874,3.442 L 0.843,3.371 L 0.582,3.485 L 0.536,3.379 L 0.797,3.266 L 0.765,3.194 L 0.477,3.32 C 0.451,3.331 0.438,3.361 0.45,3.386 L 0.519,3.542"
   id="path63"
   style="fill:#000000;fill-opacity:1" />
<polyline
   points="0.898,4.112 0.961,4.077 1.123,3.991 1.078,4.08 1.035,4.038 0.961,4.077 1.039,4.155 1.006,4.218   1.069,4.28 1.244,3.936 1.177,3.869 0.835,4.05 0.898,4.112 "
   id="polyline65"
   style="fill:#000000;fill-opacity:1" />
<path
   d="M 1.051,3.719 C 1.062,3.735 1.058,3.756 1.043,3.767 L 0.943,3.835 C 0.929,3.845 0.909,3.842 0.899,3.827 C 0.898,3.826 0.897,3.826 0.896,3.826 C 0.895,3.827 0.894,3.828 0.895,3.829 C 0.905,3.844 0.902,3.864 0.887,3.874 C 0.866,3.888 0.807,3.929 0.801,3.933 C 0.795,3.936 0.778,3.947 0.785,3.967 L 0.782,3.97 L 0.729,3.894 C 0.731,3.882 0.739,3.873 0.75,3.866 C 0.76,3.858 0.802,3.834 0.817,3.823 C 0.831,3.814 0.834,3.796 0.825,3.783 L 0.78,3.718 L 0.846,3.673 L 0.895,3.744 C 0.901,3.753 0.914,3.755 0.923,3.749 L 0.942,3.735 C 0.951,3.729 0.954,3.717 0.947,3.708 L 0.898,3.637 L 0.846,3.673 L 0.78,3.718 L 0.664,3.799 L 0.617,3.73 L 0.917,3.524 C 0.957,3.588 1.005,3.662 1.051,3.719"
   id="path67"
   style="fill:#000000;fill-opacity:1" />
<path
   d="M 2.117,4.485 L 2.138,4.408 C 2.067,4.392 1.997,4.373 1.922,4.348 L 1.82,4.698 L 2.042,4.763 L 2.063,4.686 L 1.918,4.644 L 1.935,4.583 L 2.06,4.619 L 2.08,4.542 L 1.957,4.506 L 1.975,4.444 L 2.117,4.485"
   id="path69"
   style="fill:#000000;fill-opacity:1" />
<path
   d="M 1.412,4.33 L 1.53,4.153 C 1.54,4.161 1.551,4.168 1.562,4.175 C 1.573,4.183 1.583,4.19 1.594,4.196 L 1.391,4.499 L 1.327,4.456 L 1.336,4.187 L 1.197,4.368 L 1.136,4.321 L 1.358,4.032 C 1.368,4.041 1.378,4.049 1.389,4.057 C 1.399,4.064 1.409,4.072 1.419,4.08 L 1.412,4.33"
   id="path71"
   style="fill:#000000;fill-opacity:1" />
<path
   d="M 2.754,4.811 C 2.726,4.815 2.702,4.796 2.698,4.768 L 2.662,4.502 C 2.658,4.475 2.677,4.45 2.704,4.446 C 2.743,4.441 2.783,4.439 2.792,4.437 C 2.802,4.436 2.837,4.43 2.873,4.423 C 2.9,4.418 2.926,4.438 2.929,4.466 L 2.966,4.731 C 2.97,4.758 2.951,4.783 2.924,4.787 L 2.884,4.714 L 2.856,4.507 L 2.742,4.523 L 2.771,4.729 L 2.884,4.714 L 2.924,4.787 L 2.754,4.811"
   id="path73"
   style="fill:#000000;fill-opacity:1" />
<path
   d="M 3.549,4.168 C 3.566,4.159 3.588,4.166 3.597,4.183 L 3.672,4.323 C 3.68,4.339 3.674,4.359 3.658,4.367 L 3.518,4.442 L 3.48,4.37 L 3.557,4.329 C 3.567,4.324 3.57,4.312 3.565,4.302 L 3.554,4.28 C 3.548,4.271 3.536,4.267 3.527,4.272 L 3.449,4.314 L 3.48,4.37 L 3.518,4.442 L 3.586,4.569 C 3.558,4.585 3.533,4.596 3.511,4.609 L 3.336,4.282 C 3.385,4.259 3.491,4.205 3.549,4.168"
   id="path75"
   style="fill:#000000;fill-opacity:1" />
<path
   d="M 4.613,3.483 L 4.351,3.369 L 4.319,3.443 L 4.247,3.411 C 4.278,3.352 4.316,3.261 4.34,3.194 L 4.413,3.226 L 4.382,3.298 L 4.644,3.412 L 4.613,3.483"
   id="path77"
   style="fill:#000000;fill-opacity:1" />
<path
   d="M 2.527,4.717 L 2.526,4.74 L 2.412,4.735 L 2.419,4.527 L 2.534,4.532 L 2.533,4.554 L 2.61,4.557 L 2.612,4.503 C 2.613,4.475 2.592,4.452 2.564,4.451 C 2.525,4.45 2.485,4.45 2.476,4.45 C 2.466,4.449 2.431,4.449 2.394,4.445 C 2.366,4.443 2.343,4.466 2.342,4.493 L 2.332,4.761 C 2.331,4.788 2.352,4.811 2.379,4.812 L 2.551,4.819 C 2.579,4.82 2.602,4.799 2.603,4.772 L 2.604,4.72 L 2.527,4.717"
   id="path79"
   style="fill:#000000;fill-opacity:1" />
<path
   d="M 3.222,4.328 C 3.241,4.323 3.26,4.333 3.266,4.351 L 3.301,4.466 C 3.307,4.483 3.297,4.501 3.28,4.506 C 3.279,4.507 3.279,4.508 3.279,4.509 C 3.279,4.51 3.28,4.511 3.282,4.51 C 3.298,4.505 3.316,4.514 3.321,4.531 C 3.329,4.556 3.35,4.625 3.352,4.631 C 3.354,4.638 3.359,4.658 3.381,4.657 L 3.382,4.661 L 3.294,4.688 C 3.284,4.683 3.277,4.672 3.273,4.66 C 3.269,4.648 3.258,4.601 3.252,4.583 C 3.248,4.568 3.232,4.559 3.216,4.564 L 3.142,4.587 L 3.118,4.511 L 3.2,4.485 C 3.211,4.482 3.216,4.471 3.213,4.461 L 3.206,4.437 C 3.203,4.427 3.192,4.421 3.182,4.425 L 3.099,4.45 L 3.118,4.511 L 3.142,4.587 L 3.184,4.722 L 3.104,4.747 L 2.996,4.399 C 3.069,4.379 3.154,4.356 3.222,4.328"
   id="path81"
   style="fill:#000000;fill-opacity:1" />
<path
   d="M 3.895,4.379 C 3.874,4.396 3.843,4.393 3.826,4.372 L 3.657,4.163 C 3.64,4.141 3.643,4.11 3.664,4.093 C 3.695,4.068 3.728,4.046 3.735,4.039 C 3.742,4.034 3.769,4.01 3.797,3.986 C 3.817,3.967 3.85,3.971 3.867,3.993 L 4.036,4.201 C 4.053,4.222 4.05,4.253 4.029,4.271 L 3.957,4.228 L 3.826,4.066 L 3.737,4.139 L 3.868,4.3 L 3.957,4.228 L 4.029,4.271 L 3.895,4.379"
   id="path83"
   style="fill:#000000;fill-opacity:1" />
<path
   d="M 4.048,3.723 C 4.06,3.708 4.082,3.707 4.097,3.72 L 4.187,3.8 C 4.2,3.811 4.201,3.832 4.189,3.845 C 4.189,3.846 4.189,3.847 4.189,3.848 C 4.19,3.849 4.192,3.849 4.193,3.848 C 4.204,3.835 4.224,3.833 4.238,3.845 C 4.256,3.862 4.31,3.91 4.315,3.914 C 4.321,3.919 4.335,3.934 4.353,3.922 L 4.356,3.924 L 4.295,3.993 C 4.283,3.994 4.272,3.989 4.263,3.98 C 4.253,3.972 4.219,3.937 4.205,3.925 C 4.193,3.914 4.175,3.915 4.164,3.927 L 4.112,3.986 L 4.053,3.933 L 4.11,3.868 C 4.117,3.86 4.116,3.848 4.108,3.841 L 4.09,3.824 C 4.082,3.817 4.07,3.818 4.063,3.826 L 4.005,3.891 L 4.053,3.933 L 4.112,3.986 L 4.218,4.08 L 4.163,4.142 L 3.89,3.9 C 3.943,3.846 4.004,3.782 4.048,3.723"
   id="path85"
   style="fill:#000000;fill-opacity:1" />
<polyline
   points="4.44,3.817 4.393,3.763 4.338,3.699 4.273,3.624 4.369,3.648 4.338,3.699 4.393,3.763 4.451,3.669   4.52,3.688 4.567,3.613 4.192,3.518 4.142,3.598 4.393,3.892 4.44,3.817 "
   id="polyline87"
   style="fill:#000000;fill-opacity:1" />
<path
   d="M 4.383,3.06 L 4.732,3.165 L 4.71,3.239 L 4.361,3.134 C 4.365,3.121 4.369,3.109 4.373,3.096 C 4.376,3.084 4.38,3.072 4.383,3.06"
   id="path89"
   style="fill:#000000;fill-opacity:1" />
<path
   d="M 4.661,2.431 L 4.45,2.439 C 4.45,2.426 4.45,2.413 4.449,2.4 C 4.449,2.387 4.448,2.374 4.447,2.362 L 4.812,2.349 L 4.814,2.427 L 4.591,2.576 L 4.819,2.584 L 4.816,2.661 L 4.452,2.649 C 4.453,2.636 4.453,2.623 4.454,2.61 C 4.454,2.597 4.455,2.584 4.455,2.572 L 4.661,2.431"
   id="path91"
   style="fill:#000000;fill-opacity:1" />
<path
   d="M 4.778,2.996 C 4.774,3.023 4.748,3.041 4.721,3.037 L 4.456,2.997 C 4.428,2.993 4.41,2.967 4.414,2.94 C 4.42,2.901 4.429,2.863 4.43,2.853 C 4.432,2.844 4.436,2.808 4.44,2.771 C 4.442,2.744 4.469,2.725 4.496,2.729 L 4.761,2.769 C 4.788,2.773 4.807,2.799 4.803,2.826 L 4.721,2.843 L 4.515,2.811 L 4.498,2.925 L 4.704,2.956 L 4.721,2.843 L 4.803,2.826 L 4.778,2.996"
   id="path93"
   style="fill:#000000;fill-opacity:1" />
<path
   d="M 2.003,1.796 C 2.024,1.796 2.041,1.779 2.041,1.758 C 2.041,1.736 2.024,1.719 2.003,1.719 C 1.981,1.719 1.964,1.736 1.964,1.758 C 1.964,1.779 1.981,1.796 2.003,1.796"
   id="path95"
   style="fill:#000000;fill-opacity:1" />
<path
   d="M 1.993,1.764 L 1.86,2.283 L 1.892,2.283 L 1.987,1.916 L 1.987,2.283 L 2.024,2.283 L 2.024,1.916 L 2.119,2.283 L 1.86,2.283 C 1.88,2.344 1.951,2.378 2.004,2.378 C 2.057,2.378 2.128,2.344 2.149,2.283 L 2.016,1.764 L 1.993,1.764"
   id="path97"
   style="fill:#000000;fill-opacity:1" />
<path
   d="M 2.546,1.534 L 2.608,1.562 L 2.602,1.573 C 2.573,1.573 2.567,1.629 2.567,1.657 C 2.567,1.673 2.582,1.695 2.61,1.695 C 2.638,1.695 2.688,1.669 2.756,1.669 C 2.824,1.669 2.896,1.698 2.97,1.698 C 3.045,1.698 3.062,1.677 3.081,1.677 C 3.099,1.677 3.137,1.685 3.137,1.712 C 3.137,1.74 3.099,1.748 3.081,1.748 C 3.062,1.748 3.045,1.727 2.97,1.727 C 2.896,1.727 2.824,1.755 2.756,1.755 C 2.688,1.755 2.638,1.73 2.61,1.73 C 2.582,1.73 2.567,1.752 2.567,1.768 C 2.567,1.784 2.601,1.816 2.601,1.816 L 2.546,1.899 L 2.492,1.816 C 2.492,1.816 2.526,1.784 2.526,1.768 C 2.526,1.752 2.511,1.73 2.483,1.73 C 2.455,1.73 2.405,1.755 2.337,1.755 C 2.268,1.755 2.197,1.727 2.122,1.727 C 2.048,1.727 2.03,1.748 2.012,1.748 C 1.993,1.748 1.956,1.74 1.956,1.712 C 1.956,1.685 1.993,1.677 2.012,1.677 C 2.03,1.677 2.048,1.698 2.122,1.698 C 2.197,1.698 2.268,1.669 2.337,1.669 C 2.405,1.669 2.455,1.695 2.483,1.695 C 2.511,1.695 2.526,1.673 2.526,1.657 C 2.526,1.629 2.52,1.573 2.49,1.573 L 2.484,1.562 L 2.546,1.534"
   id="path99"
   style="fill:#000000;fill-opacity:1" />
<path
   d="M 3.09,1.796 C 3.069,1.796 3.052,1.779 3.052,1.758 C 3.052,1.736 3.069,1.719 3.09,1.719 C 3.111,1.719 3.129,1.736 3.129,1.758 C 3.129,1.779 3.111,1.796 3.09,1.796"
   id="path101"
   style="fill:#000000;fill-opacity:1" />
<path
   d="M 3.1,1.764 L 3.233,2.283 L 3.2,2.283 L 3.105,1.916 L 3.105,2.283 L 3.069,2.283 L 3.069,1.916 L 2.974,2.283 L 3.233,2.283 C 3.212,2.344 3.141,2.378 3.088,2.378 C 3.036,2.378 2.964,2.344 2.944,2.283 L 3.077,1.764 L 3.1,1.764"
   id="path103"
   style="fill:#000000;fill-opacity:1" />
<path
   d="M 1.681,1.646 C 1.7,1.646 1.716,1.63 1.716,1.611 C 1.716,1.591 1.7,1.575 1.681,1.575 C 1.661,1.575 1.646,1.591 1.646,1.611 C 1.646,1.63 1.661,1.646 1.681,1.646"
   id="path105"
   style="fill:#000000;fill-opacity:1" />
<path
   d="M 1.559,1.768 C 1.578,1.768 1.594,1.752 1.594,1.733 C 1.594,1.713 1.578,1.697 1.559,1.697 C 1.54,1.697 1.524,1.713 1.524,1.733 C 1.524,1.752 1.54,1.768 1.559,1.768"
   id="path107"
   style="fill:#000000;fill-opacity:1" />
<path
   d="M 1.803,1.768 C 1.822,1.768 1.838,1.752 1.838,1.733 C 1.838,1.713 1.822,1.697 1.803,1.697 C 1.784,1.697 1.768,1.713 1.768,1.733 C 1.768,1.752 1.784,1.768 1.803,1.768"
   id="path109"
   style="fill:#000000;fill-opacity:1" />
<path
   d="M 1.681,1.89 C 1.7,1.89 1.716,1.874 1.716,1.855 C 1.716,1.835 1.7,1.819 1.681,1.819 C 1.661,1.819 1.646,1.835 1.646,1.855 C 1.646,1.874 1.661,1.89 1.681,1.89"
   id="path111"
   style="fill:#000000;fill-opacity:1" />
<path
   d="M 1.921,1.646 C 1.94,1.646 1.956,1.63 1.956,1.611 C 1.956,1.591 1.94,1.575 1.921,1.575 C 1.901,1.575 1.886,1.591 1.886,1.611 C 1.886,1.63 1.901,1.646 1.921,1.646"
   id="path113"
   style="fill:#000000;fill-opacity:1" />
<path
   d="M 3.176,1.646 C 3.195,1.646 3.211,1.63 3.211,1.611 C 3.211,1.591 3.195,1.575 3.176,1.575 C 3.156,1.575 3.14,1.591 3.14,1.611 C 3.14,1.63 3.156,1.646 3.176,1.646"
   id="path115"
   style="fill:#000000;fill-opacity:1" />
<path
   d="M 3.443,1.646 C 3.463,1.646 3.478,1.63 3.478,1.611 C 3.478,1.591 3.463,1.575 3.443,1.575 C 3.424,1.575 3.408,1.591 3.408,1.611 C 3.408,1.63 3.424,1.646 3.443,1.646"
   id="path117"
   style="fill:#000000;fill-opacity:1" />
<path
   d="M 1.921,1.886 C 1.94,1.886 1.956,1.87 1.956,1.851 C 1.956,1.831 1.94,1.815 1.921,1.815 C 1.901,1.815 1.886,1.831 1.886,1.851 C 1.886,1.87 1.901,1.886 1.921,1.886"
   id="path119"
   style="fill:#000000;fill-opacity:1" />
<path
   d="M 2.177,2.13 C 2.196,2.13 2.212,2.114 2.212,2.094 C 2.212,2.075 2.196,2.059 2.177,2.059 C 2.157,2.059 2.141,2.075 2.141,2.094 C 2.141,2.114 2.157,2.13 2.177,2.13"
   id="path121"
   style="fill:#000000;fill-opacity:1" />
<path
   d="M 2.31,2.244 C 2.33,2.244 2.345,2.228 2.345,2.208 C 2.345,2.189 2.33,2.173 2.31,2.173 C 2.291,2.173 2.275,2.189 2.275,2.208 C 2.275,2.228 2.291,2.244 2.31,2.244"
   id="path123"
   style="fill:#000000;fill-opacity:1" />
<path
   d="M 1.799,2.008 C 1.818,2.008 1.834,1.992 1.834,1.973 C 1.834,1.953 1.818,1.937 1.799,1.937 C 1.78,1.937 1.764,1.953 1.764,1.973 C 1.764,1.992 1.78,2.008 1.799,2.008"
   id="path125"
   style="fill:#000000;fill-opacity:1" />
<path
   d="M 1.681,2.126 C 1.7,2.126 1.716,2.11 1.716,2.091 C 1.716,2.071 1.7,2.055 1.681,2.055 C 1.661,2.055 1.646,2.071 1.646,2.091 C 1.646,2.11 1.661,2.126 1.681,2.126"
   id="path127"
   style="fill:#000000;fill-opacity:1" />
<path
   d="M 1.801,2.246 C 1.82,2.246 1.836,2.23 1.836,2.211 C 1.836,2.19 1.82,2.175 1.801,2.175 C 1.781,2.175 1.766,2.191 1.766,2.211 C 1.766,2.23 1.781,2.246 1.801,2.246"
   id="path129"
   style="fill:#000000;fill-opacity:1" />
<path
   d="M 2.051,2.495 C 2.07,2.495 2.086,2.48 2.086,2.46 C 2.086,2.441 2.07,2.425 2.051,2.425 C 2.031,2.425 2.015,2.441 2.015,2.46 C 2.015,2.48 2.031,2.495 2.051,2.495"
   id="path131"
   style="fill:#000000;fill-opacity:1" />
<path
   d="M 1.681,2.366 C 1.7,2.366 1.716,2.35 1.716,2.331 C 1.716,2.311 1.7,2.295 1.681,2.295 C 1.661,2.295 1.646,2.311 1.646,2.331 C 1.646,2.35 1.661,2.366 1.681,2.366"
   id="path133"
   style="fill:#000000;fill-opacity:1" />
<path
   d="M 1.681,2.617 C 1.7,2.617 1.716,2.602 1.716,2.582 C 1.716,2.563 1.7,2.547 1.681,2.547 C 1.661,2.547 1.646,2.563 1.646,2.582 C 1.646,2.602 1.661,2.617 1.681,2.617"
   id="path135"
   style="fill:#000000;fill-opacity:1" />
<path
   d="M 1.681,2.857 C 1.7,2.857 1.716,2.842 1.716,2.822 C 1.716,2.803 1.7,2.787 1.681,2.787 C 1.661,2.787 1.646,2.803 1.646,2.822 C 1.646,2.842 1.661,2.857 1.681,2.857"
   id="path137"
   style="fill:#000000;fill-opacity:1" />
<path
   d="M 1.807,2.731 C 1.826,2.731 1.842,2.716 1.842,2.696 C 1.842,2.677 1.826,2.661 1.807,2.661 C 1.787,2.661 1.772,2.677 1.772,2.696 C 1.772,2.716 1.787,2.731 1.807,2.731"
   id="path139"
   style="fill:#000000;fill-opacity:1" />
<path
   d="M 1.933,2.617 C 1.952,2.617 1.968,2.602 1.968,2.582 C 1.968,2.563 1.952,2.547 1.933,2.547 C 1.913,2.547 1.898,2.563 1.898,2.582 C 1.898,2.602 1.913,2.617 1.933,2.617"
   id="path141"
   style="fill:#000000;fill-opacity:1" />
<path
   d="M 1.807,2.492 C 1.826,2.492 1.842,2.476 1.842,2.456 C 1.842,2.437 1.826,2.421 1.807,2.421 C 1.787,2.421 1.772,2.437 1.772,2.456 C 1.772,2.476 1.787,2.492 1.807,2.492"
   id="path143"
   style="fill:#000000;fill-opacity:1" />
<path
   d="M 1.561,2.977 C 1.58,2.977 1.596,2.962 1.596,2.942 C 1.596,2.923 1.58,2.907 1.561,2.907 C 1.542,2.907 1.526,2.923 1.526,2.942 C 1.526,2.962 1.542,2.977 1.561,2.977"
   id="path145"
   style="fill:#000000;fill-opacity:1" />
<path
   d="M 2.177,1.886 C 2.196,1.886 2.212,1.87 2.212,1.851 C 2.212,1.831 2.196,1.815 2.177,1.815 C 2.157,1.815 2.141,1.831 2.141,1.851 C 2.141,1.87 2.157,1.886 2.177,1.886"
   id="path147"
   style="fill:#000000;fill-opacity:1" />
<path
   d="M 2.298,2.008 C 2.318,2.008 2.334,1.992 2.334,1.972 C 2.334,1.953 2.318,1.937 2.298,1.937 C 2.279,1.937 2.263,1.953 2.263,1.972 C 2.263,1.992 2.279,2.008 2.298,2.008"
   id="path149"
   style="fill:#000000;fill-opacity:1" />
<path
   d="M 2.428,2.122 C 2.448,2.122 2.463,2.106 2.463,2.087 C 2.463,2.066 2.448,2.051 2.428,2.051 C 2.409,2.051 2.393,2.067 2.393,2.087 C 2.393,2.106 2.409,2.122 2.428,2.122"
   id="path151"
   style="fill:#000000;fill-opacity:1" />
<path
   d="M 2.428,1.886 C 2.448,1.886 2.463,1.87 2.463,1.851 C 2.463,1.831 2.448,1.815 2.428,1.815 C 2.409,1.815 2.393,1.831 2.393,1.851 C 2.393,1.87 2.409,1.886 2.428,1.886"
   id="path153"
   style="fill:#000000;fill-opacity:1" />
<path
   d="M 2.55,2.008 C 2.57,2.008 2.585,1.992 2.585,1.972 C 2.585,1.953 2.57,1.937 2.55,1.937 C 2.531,1.937 2.515,1.953 2.515,1.972 C 2.515,1.992 2.531,2.008 2.55,2.008"
   id="path155"
   style="fill:#000000;fill-opacity:1" />
<path
   d="M 2.672,1.886 C 2.692,1.886 2.707,1.87 2.707,1.851 C 2.707,1.831 2.692,1.815 2.672,1.815 C 2.653,1.815 2.637,1.831 2.637,1.851 C 2.637,1.87 2.653,1.886 2.672,1.886"
   id="path157"
   style="fill:#000000;fill-opacity:1" />
<path
   d="M 2.814,2.012 C 2.833,2.012 2.849,1.996 2.849,1.976 C 2.849,1.957 2.833,1.941 2.814,1.941 C 2.794,1.941 2.779,1.957 2.779,1.976 C 2.779,1.996 2.794,2.012 2.814,2.012"
   id="path159"
   style="fill:#000000;fill-opacity:1" />
<path
   d="M 2.932,1.89 C 2.951,1.89 2.967,1.874 2.967,1.854 C 2.967,1.835 2.951,1.819 2.932,1.819 C 2.912,1.819 2.897,1.835 2.897,1.854 C 2.897,1.874 2.912,1.89 2.932,1.89"
   id="path161"
   style="fill:#000000;fill-opacity:1" />
<path
   d="M 2.688,2.13 C 2.707,2.13 2.723,2.114 2.723,2.094 C 2.723,2.075 2.707,2.059 2.688,2.059 C 2.669,2.059 2.653,2.075 2.653,2.094 C 2.653,2.114 2.669,2.13 2.688,2.13"
   id="path163"
   style="fill:#000000;fill-opacity:1" />
<path
   d="M 2.818,2.259 C 2.837,2.259 2.853,2.244 2.853,2.224 C 2.853,2.205 2.837,2.189 2.818,2.189 C 2.798,2.189 2.783,2.205 2.783,2.224 C 2.783,2.244 2.798,2.259 2.818,2.259"
   id="path165"
   style="fill:#000000;fill-opacity:1" />
<path
   d="M 2.942,2.135 C 2.961,2.135 2.977,2.12 2.977,2.1 C 2.977,2.081 2.961,2.065 2.942,2.065 C 2.922,2.065 2.906,2.081 2.906,2.1 C 2.906,2.12 2.922,2.135 2.942,2.135"
   id="path167"
   style="fill:#000000;fill-opacity:1" />
<path
   d="M 3.307,1.778 C 3.327,1.778 3.343,1.762 3.343,1.742 C 3.343,1.723 3.327,1.707 3.307,1.707 C 3.288,1.707 3.272,1.723 3.272,1.742 C 3.272,1.762 3.288,1.778 3.307,1.778"
   id="path169"
   style="fill:#000000;fill-opacity:1" />
<path
   d="M 3.559,1.762 C 3.579,1.762 3.594,1.746 3.594,1.727 C 3.594,1.707 3.579,1.691 3.559,1.691 C 3.54,1.691 3.524,1.707 3.524,1.727 C 3.524,1.746 3.54,1.762 3.559,1.762"
   id="path171"
   style="fill:#000000;fill-opacity:1" />
<path
   d="M 3.431,1.89 C 3.451,1.89 3.466,1.874 3.466,1.854 C 3.466,1.835 3.451,1.819 3.431,1.819 C 3.412,1.819 3.396,1.835 3.396,1.854 C 3.396,1.874 3.412,1.89 3.431,1.89"
   id="path173"
   style="fill:#000000;fill-opacity:1" />
<path
   d="M 3.305,2.015 C 3.325,2.015 3.341,2 3.341,1.98 C 3.341,1.961 3.325,1.945 3.305,1.945 C 3.286,1.945 3.27,1.961 3.27,1.98 C 3.27,2 3.286,2.015 3.305,2.015"
   id="path175"
   style="fill:#000000;fill-opacity:1" />
<path
   d="M 3.305,2.26 C 3.325,2.26 3.341,2.244 3.341,2.225 C 3.341,2.205 3.325,2.19 3.305,2.19 C 3.286,2.19 3.27,2.205 3.27,2.225 C 3.27,2.244 3.286,2.26 3.305,2.26"
   id="path177"
   style="fill:#000000;fill-opacity:1" />
<path
   d="M 3.431,2.141 C 3.451,2.141 3.466,2.126 3.466,2.106 C 3.466,2.087 3.451,2.071 3.431,2.071 C 3.412,2.071 3.396,2.087 3.396,2.106 C 3.396,2.126 3.412,2.141 3.431,2.141"
   id="path179"
   style="fill:#000000;fill-opacity:1" />
<path
   d="M 3.459,2.385 C 3.478,2.385 3.494,2.369 3.494,2.35 C 3.494,2.331 3.478,2.315 3.459,2.315 C 3.439,2.315 3.424,2.331 3.424,2.35 C 3.424,2.369 3.439,2.385 3.459,2.385"
   id="path181"
   style="fill:#000000;fill-opacity:1" />
<path
   d="M 3.329,2.507 C 3.348,2.507 3.364,2.491 3.364,2.472 C 3.364,2.453 3.348,2.437 3.329,2.437 C 3.31,2.437 3.294,2.453 3.294,2.472 C 3.294,2.491 3.31,2.507 3.329,2.507"
   id="path183"
   style="fill:#000000;fill-opacity:1" />
<path
   d="M 3.069,2.503 C 3.089,2.503 3.105,2.488 3.105,2.468 C 3.105,2.449 3.089,2.433 3.069,2.433 C 3.05,2.433 3.034,2.449 3.034,2.468 C 3.034,2.488 3.05,2.503 3.069,2.503"
   id="path185"
   style="fill:#000000;fill-opacity:1" />
<path
   d="M 3.203,2.633 C 3.223,2.633 3.238,2.617 3.238,2.598 C 3.238,2.578 3.223,2.563 3.203,2.563 C 3.184,2.563 3.168,2.578 3.168,2.598 C 3.168,2.617 3.184,2.633 3.203,2.633"
   id="path187"
   style="fill:#000000;fill-opacity:1" />
<path
   d="M 3.313,2.743 C 3.333,2.743 3.348,2.727 3.348,2.708 C 3.348,2.689 3.333,2.673 3.313,2.673 C 3.294,2.673 3.278,2.689 3.278,2.708 C 3.278,2.727 3.294,2.743 3.313,2.743"
   id="path189"
   style="fill:#000000;fill-opacity:1" />
<path
   d="M 3.451,2.865 C 3.47,2.865 3.486,2.849 3.486,2.83 C 3.486,2.811 3.47,2.795 3.451,2.795 C 3.432,2.795 3.416,2.811 3.416,2.83 C 3.416,2.849 3.432,2.865 3.451,2.865"
   id="path191"
   style="fill:#000000;fill-opacity:1" />
<path
   d="M 1.791,3.522 C 1.81,3.522 1.826,3.506 1.826,3.487 C 1.826,3.467 1.81,3.452 1.791,3.452 C 1.772,3.452 1.756,3.467 1.756,3.487 C 1.756,3.506 1.772,3.522 1.791,3.522"
   id="path193"
   style="fill:#000000;fill-opacity:1" />
<path
   d="M 2.043,3.27 C 2.062,3.27 2.078,3.255 2.078,3.235 C 2.078,3.216 2.062,3.2 2.043,3.2 C 2.023,3.2 2.008,3.216 2.008,3.235 C 2.008,3.255 2.023,3.27 2.043,3.27"
   id="path195"
   style="fill:#000000;fill-opacity:1" />
<path
   d="M 2.163,3.15 C 2.182,3.15 2.198,3.135 2.198,3.115 C 2.198,3.096 2.182,3.08 2.163,3.08 C 2.143,3.08 2.128,3.096 2.128,3.115 C 2.128,3.135 2.143,3.15 2.163,3.15"
   id="path197"
   style="fill:#000000;fill-opacity:1" />
<path
   d="M 2.291,3.023 C 2.31,3.023 2.326,3.007 2.326,2.987 C 2.326,2.968 2.31,2.952 2.291,2.952 C 2.271,2.952 2.255,2.968 2.255,2.987 C 2.255,3.007 2.271,3.023 2.291,3.023"
   id="path199"
   style="fill:#000000;fill-opacity:1" />
<path
   d="M 2.415,2.899 C 2.434,2.899 2.45,2.883 2.45,2.863 C 2.45,2.844 2.434,2.828 2.415,2.828 C 2.395,2.828 2.379,2.844 2.379,2.863 C 2.379,2.883 2.395,2.899 2.415,2.899"
   id="path201"
   style="fill:#000000;fill-opacity:1" />
<path
   d="M 2.538,2.775 C 2.558,2.775 2.574,2.759 2.574,2.74 C 2.574,2.72 2.558,2.704 2.538,2.704 C 2.519,2.704 2.503,2.72 2.503,2.74 C 2.503,2.759 2.519,2.775 2.538,2.775"
   id="path203"
   style="fill:#000000;fill-opacity:1" />
<path
   d="M 2.666,2.903 C 2.686,2.903 2.701,2.887 2.701,2.867 C 2.701,2.848 2.686,2.832 2.666,2.832 C 2.647,2.832 2.631,2.848 2.631,2.867 C 2.631,2.887 2.647,2.903 2.666,2.903"
   id="path205"
   style="fill:#000000;fill-opacity:1" />
<path
   d="M 2.8,3.021 C 2.819,3.021 2.835,3.005 2.835,2.985 C 2.835,2.966 2.819,2.95 2.8,2.95 C 2.781,2.95 2.765,2.966 2.765,2.985 C 2.765,3.005 2.781,3.021 2.8,3.021"
   id="path207"
   style="fill:#000000;fill-opacity:1" />
<path
   d="M 2.922,3.143 C 2.941,3.143 2.957,3.127 2.957,3.107 C 2.957,3.088 2.941,3.072 2.922,3.072 C 2.902,3.072 2.887,3.088 2.887,3.107 C 2.887,3.127 2.902,3.143 2.922,3.143"
   id="path209"
   style="fill:#000000;fill-opacity:1" />
<path
   d="M 2.666,3.146 C 2.686,3.146 2.701,3.131 2.701,3.111 C 2.701,3.092 2.686,3.076 2.666,3.076 C 2.647,3.076 2.631,3.092 2.631,3.111 C 2.631,3.131 2.647,3.146 2.666,3.146"
   id="path211"
   style="fill:#000000;fill-opacity:1" />
<path
   d="M 2.544,3.024 C 2.564,3.024 2.579,3.009 2.579,2.989 C 2.579,2.97 2.564,2.954 2.544,2.954 C 2.525,2.954 2.509,2.97 2.509,2.989 C 2.509,3.009 2.525,3.024 2.544,3.024"
   id="path213"
   style="fill:#000000;fill-opacity:1" />
<path
   d="M 2.418,3.15 C 2.438,3.15 2.454,3.135 2.454,3.115 C 2.454,3.096 2.438,3.08 2.418,3.08 C 2.399,3.08 2.383,3.096 2.383,3.115 C 2.383,3.135 2.399,3.15 2.418,3.15"
   id="path215"
   style="fill:#000000;fill-opacity:1" />
<path
   d="M 2.296,3.272 C 2.316,3.272 2.332,3.257 2.332,3.237 C 2.332,3.218 2.316,3.202 2.296,3.202 C 2.277,3.202 2.261,3.218 2.261,3.237 C 2.261,3.257 2.277,3.272 2.296,3.272"
   id="path217"
   style="fill:#000000;fill-opacity:1" />
<path
   d="M 2.544,3.272 C 2.564,3.272 2.579,3.257 2.579,3.237 C 2.579,3.218 2.564,3.202 2.544,3.202 C 2.525,3.202 2.509,3.218 2.509,3.237 C 2.509,3.257 2.525,3.272 2.544,3.272"
   id="path219"
   style="fill:#000000;fill-opacity:1" />
<path
   d="M 2.788,3.272 C 2.808,3.272 2.823,3.257 2.823,3.237 C 2.823,3.218 2.808,3.202 2.788,3.202 C 2.769,3.202 2.753,3.218 2.753,3.237 C 2.753,3.257 2.769,3.272 2.788,3.272"
   id="path221"
   style="fill:#000000;fill-opacity:1" />
<path
   d="M 3.17,3.386 C 3.189,3.386 3.205,3.371 3.205,3.351 C 3.205,3.332 3.189,3.316 3.17,3.316 C 3.15,3.316 3.135,3.332 3.135,3.351 C 3.135,3.371 3.15,3.386 3.17,3.386"
   id="path223"
   style="fill:#000000;fill-opacity:1" />
<path
   d="M 3.3,3.504 C 3.319,3.504 3.335,3.489 3.335,3.469 C 3.335,3.45 3.319,3.434 3.3,3.434 C 3.28,3.434 3.264,3.45 3.264,3.469 C 3.264,3.489 3.28,3.504 3.3,3.504"
   id="path225"
   style="fill:#000000;fill-opacity:1" />
<path
   d="M 3.174,3.634 C 3.193,3.634 3.209,3.618 3.209,3.599 C 3.209,3.58 3.193,3.564 3.174,3.564 C 3.154,3.564 3.139,3.58 3.139,3.599 C 3.139,3.618 3.154,3.634 3.174,3.634"
   id="path227"
   style="fill:#000000;fill-opacity:1" />
<path
   d="M 2.674,3.638 C 2.694,3.638 2.709,3.622 2.709,3.603 C 2.709,3.584 2.694,3.568 2.674,3.568 C 2.655,3.568 2.639,3.584 2.639,3.603 C 2.639,3.622 2.655,3.638 2.674,3.638"
   id="path229"
   style="fill:#000000;fill-opacity:1" />
<path
   d="M 2.418,3.638 C 2.438,3.638 2.454,3.622 2.454,3.603 C 2.454,3.584 2.438,3.568 2.418,3.568 C 2.399,3.568 2.383,3.584 2.383,3.603 C 2.383,3.622 2.399,3.638 2.418,3.638"
   id="path231"
   style="fill:#000000;fill-opacity:1" />
<path
   d="M 2.792,3.756 C 2.812,3.756 2.827,3.74 2.827,3.721 C 2.827,3.702 2.812,3.686 2.792,3.686 C 2.773,3.686 2.757,3.702 2.757,3.721 C 2.757,3.74 2.773,3.756 2.792,3.756"
   id="path233"
   style="fill:#000000;fill-opacity:1" />
<path
   d="M 2.544,3.756 C 2.564,3.756 2.579,3.74 2.579,3.721 C 2.579,3.702 2.564,3.686 2.544,3.686 C 2.525,3.686 2.509,3.702 2.509,3.721 C 2.509,3.74 2.525,3.756 2.544,3.756"
   id="path235"
   style="fill:#000000;fill-opacity:1" />
<path
   d="M 2.296,3.756 C 2.316,3.756 2.332,3.74 2.332,3.721 C 2.332,3.702 2.316,3.686 2.296,3.686 C 2.277,3.686 2.261,3.702 2.261,3.721 C 2.261,3.74 2.277,3.756 2.296,3.756"
   id="path237"
   style="fill:#000000;fill-opacity:1" />
<path
   d="M 3.873,1.79 C 3.934,1.814 4.03,1.924 3.97,1.984 C 3.748,1.905 3.678,2.1 3.678,2.21 C 3.678,2.462 3.869,2.593 3.869,3.043 C 3.869,3.185 3.833,3.734 3.085,3.907 C 2.969,3.934 2.714,4.001 2.547,4.157 L 2.547,4.11 C 2.73,3.94 3.083,3.88 3.14,3.863 C 3.42,3.779 3.839,3.549 3.839,3.033 C 3.839,2.716 3.709,2.467 3.588,2.467 C 3.536,2.467 3.552,2.53 3.581,2.573 C 3.599,2.598 3.619,2.64 3.572,2.63 C 3.526,2.621 3.463,2.637 3.463,2.678 C 3.463,2.699 3.49,2.699 3.504,2.691 C 3.518,2.683 3.536,2.677 3.563,2.677 C 3.614,2.677 3.67,2.71 3.67,2.747 C 3.67,2.784 3.599,2.769 3.599,2.798 C 3.599,2.818 3.769,2.94 3.769,3.082 C 3.769,3.128 3.751,3.11 3.74,3.082 C 3.729,3.055 3.7,3.017 3.672,3.017 C 3.644,3.017 3.628,3.028 3.64,3.051 C 3.653,3.075 3.7,3.146 3.7,3.246 C 3.7,3.345 3.627,3.476 3.578,3.535 C 3.555,3.564 3.547,3.545 3.543,3.535 C 3.538,3.524 3.527,3.49 3.504,3.49 C 3.463,3.49 3.488,3.682 3.045,3.8 C 2.957,3.824 2.733,3.88 2.547,4.022 C 2.36,3.88 2.136,3.824 2.048,3.8 C 1.605,3.682 1.63,3.49 1.589,3.49 C 1.566,3.49 1.555,3.524 1.551,3.535 C 1.546,3.545 1.539,3.564 1.515,3.535 C 1.467,3.476 1.394,3.345 1.394,3.246 C 1.394,3.146 1.44,3.075 1.453,3.051 C 1.465,3.028 1.45,3.017 1.422,3.017 C 1.394,3.017 1.364,3.055 1.353,3.082 C 1.342,3.11 1.324,3.128 1.324,3.082 C 1.324,2.94 1.495,2.818 1.495,2.798 C 1.495,2.769 1.423,2.784 1.423,2.747 C 1.423,2.71 1.479,2.677 1.53,2.677 C 1.557,2.677 1.575,2.683 1.589,2.691 C 1.603,2.699 1.63,2.699 1.63,2.678 C 1.63,2.637 1.568,2.621 1.521,2.63 C 1.474,2.64 1.495,2.598 1.512,2.573 C 1.541,2.53 1.557,2.467 1.506,2.467 C 1.384,2.467 1.254,2.716 1.254,3.033 C 1.254,3.549 1.673,3.779 1.953,3.863 C 2.01,3.88 2.363,3.94 2.547,4.11 L 2.547,4.157 C 2.379,4.001 2.123,3.934 2.007,3.907 C 1.259,3.734 1.222,3.185 1.222,3.043 C 1.222,2.593 1.414,2.462 1.414,2.21 C 1.414,2.1 1.344,1.905 1.122,1.984 C 1.061,1.924 1.159,1.814 1.219,1.79 C 1.207,1.735 1.393,1.495 1.694,1.495 C 1.889,1.495 2.041,1.589 2.248,1.589 C 2.327,1.589 2.467,1.552 2.547,1.504 L 2.547,1.546 C 2.467,1.595 2.327,1.631 2.248,1.631 C 2.041,1.631 1.889,1.537 1.694,1.537 C 1.546,1.537 1.432,1.596 1.36,1.657 C 1.371,1.658 1.408,1.673 1.412,1.675 C 1.43,1.689 1.421,1.71 1.396,1.7 C 1.38,1.694 1.359,1.682 1.335,1.679 C 1.325,1.69 1.315,1.7 1.307,1.71 C 1.355,1.71 1.385,1.725 1.406,1.736 C 1.427,1.748 1.42,1.772 1.392,1.76 C 1.368,1.749 1.337,1.734 1.286,1.74 C 1.277,1.753 1.273,1.765 1.271,1.774 L 1.282,1.821 C 1.243,1.821 1.136,1.859 1.156,1.925 C 1.192,1.915 1.445,1.921 1.445,2.177 C 1.445,2.221 1.461,2.216 1.461,2.202 C 1.486,2.085 1.407,1.955 1.309,1.908 C 1.27,1.89 1.279,1.857 1.333,1.887 C 1.386,1.915 1.492,1.994 1.492,2.143 C 1.492,2.177 1.483,2.247 1.483,2.247 C 1.483,2.247 1.521,2.208 1.521,2.112 C 1.521,1.952 1.393,1.821 1.282,1.821 L 1.271,1.774 C 1.335,1.765 1.566,1.826 1.566,2.14 C 1.566,2.191 1.536,2.356 1.481,2.425 C 1.542,2.416 1.657,2.419 1.566,2.581 C 1.7,2.608 1.667,2.742 1.624,2.742 C 1.568,2.742 1.572,2.712 1.517,2.712 C 1.478,2.712 1.474,2.738 1.496,2.745 C 1.524,2.754 1.542,2.769 1.542,2.8 C 1.542,2.856 1.46,2.827 1.388,2.991 C 1.413,2.984 1.426,2.979 1.443,2.979 C 1.46,2.979 1.499,2.985 1.499,3.019 C 1.499,3.052 1.429,3.103 1.429,3.239 C 1.429,3.311 1.502,3.439 1.521,3.463 C 1.542,3.442 1.563,3.426 1.588,3.426 C 1.673,3.426 1.66,3.493 1.66,3.512 C 1.66,3.53 1.755,3.694 2.026,3.761 C 2.158,3.794 2.446,3.875 2.547,3.973 C 2.647,3.875 2.936,3.794 3.068,3.761 C 3.338,3.694 3.433,3.53 3.433,3.512 C 3.433,3.493 3.421,3.426 3.506,3.426 C 3.53,3.426 3.551,3.442 3.573,3.463 C 3.591,3.439 3.664,3.311 3.664,3.239 C 3.664,3.103 3.594,3.052 3.594,3.019 C 3.594,2.985 3.633,2.979 3.65,2.979 C 3.667,2.979 3.681,2.984 3.705,2.991 C 3.633,2.827 3.551,2.856 3.551,2.8 C 3.551,2.769 3.57,2.754 3.597,2.745 C 3.619,2.738 3.615,2.712 3.576,2.712 C 3.521,2.712 3.525,2.742 3.469,2.742 C 3.427,2.742 3.393,2.608 3.527,2.581 C 3.436,2.419 3.551,2.416 3.612,2.425 C 3.557,2.356 3.527,2.191 3.527,2.14 C 3.527,1.952 3.61,1.855 3.69,1.809 C 3.676,1.791 3.663,1.78 3.651,1.769 C 3.628,1.749 3.648,1.732 3.668,1.747 C 3.682,1.757 3.699,1.771 3.716,1.796 C 3.726,1.791 3.737,1.788 3.746,1.784 C 3.734,1.765 3.716,1.752 3.704,1.741 C 3.685,1.722 3.7,1.705 3.72,1.716 C 3.73,1.722 3.75,1.734 3.776,1.777 C 3.795,1.773 3.811,1.773 3.822,1.774 L 3.811,1.821 C 3.701,1.821 3.572,1.952 3.572,2.112 C 3.572,2.208 3.611,2.247 3.611,2.247 C 3.611,2.247 3.601,2.177 3.601,2.143 C 3.601,1.994 3.707,1.915 3.76,1.887 C 3.814,1.857 3.823,1.89 3.785,1.908 C 3.687,1.955 3.607,2.085 3.632,2.202 C 3.632,2.216 3.648,2.221 3.648,2.177 C 3.648,1.921 3.901,1.915 3.937,1.925 C 3.957,1.859 3.85,1.821 3.811,1.821 L 3.822,1.774 C 3.813,1.717 3.658,1.537 3.399,1.537 C 3.204,1.537 3.052,1.631 2.845,1.631 C 2.766,1.631 2.626,1.595 2.547,1.546 L 2.547,1.504 C 2.626,1.552 2.765,1.589 2.844,1.589 C 3.051,1.589 3.204,1.495 3.398,1.495 C 3.7,1.495 3.885,1.735 3.873,1.79"
   id="path239"
   style="fill:#000000;fill-opacity:1" />
<path
   d="M 2.687,3.968 C 2.748,3.93 2.974,3.825 3.134,3.795 C 3.192,3.784 3.18,3.807 3.125,3.819 C 2.948,3.858 2.729,3.96 2.708,3.977 C 2.684,3.997 2.642,3.996 2.687,3.968"
   id="path241"
   style="fill:#000000;fill-opacity:1" />
<path
   d="M 2.443,3.988 C 2.377,3.938 2.186,3.857 2.025,3.826 C 1.967,3.815 1.98,3.838 2.034,3.851 C 2.212,3.89 2.352,3.952 2.422,3.998 C 2.448,4.015 2.485,4.021 2.443,3.988"
   id="path243"
   style="fill:#000000;fill-opacity:1" />
<path
   d="M 2.546,2.131 L 3.67,3.232 C 3.675,3.22 3.672,3.192 3.665,3.162 L 2.546,2.066 L 1.427,3.162 C 1.42,3.192 1.417,3.22 1.422,3.232 L 2.546,2.131"
   id="path245"
   style="fill:#000000;fill-opacity:1" />
<polyline
   points="2.546,2.626 3.444,3.506 3.469,3.465 2.546,2.561 1.623,3.465 1.647,3.506 2.546,2.626 "
   id="polyline247"
   style="fill:#000000;fill-opacity:1" />
<path
   d="M 2.546,2.515 L 3.517,3.466 C 3.595,3.528 3.651,3.331 3.668,3.275 L 2.546,2.177 L 1.424,3.275 L 1.545,3.349 L 1.545,3.292 L 1.511,3.246 L 1.565,3.229 L 1.598,3.183 L 1.631,3.229 L 1.703,3.194 L 1.703,3.138 L 1.669,3.092 L 1.723,3.075 L 1.756,3.029 L 1.789,3.075 L 1.861,3.04 L 1.861,2.984 L 1.827,2.938 L 1.882,2.921 L 1.914,2.875 L 1.947,2.921 L 2.019,2.886 L 2.019,2.829 L 1.985,2.784 L 2.04,2.767 L 2.072,2.721 L 2.105,2.767 L 2.177,2.732 L 2.177,2.675 L 2.143,2.63 L 2.198,2.613 L 2.23,2.567 L 2.263,2.613 L 2.335,2.578 L 2.335,2.521 L 2.301,2.476 L 2.356,2.459 L 2.388,2.412 L 2.421,2.459 L 2.493,2.424 L 2.493,2.367 L 2.459,2.321 L 2.514,2.304 L 2.546,2.258 L 2.579,2.304 L 2.633,2.321 L 2.6,2.367 L 2.6,2.424 L 2.616,2.476 L 2.67,2.459 L 2.703,2.412 L 2.736,2.459 L 2.79,2.476 L 2.756,2.521 L 2.757,2.578 L 2.828,2.613 L 2.861,2.567 L 2.894,2.613 L 2.948,2.63 L 2.914,2.675 L 2.915,2.732 L 2.986,2.767 L 3.019,2.721 L 3.052,2.767 L 3.106,2.784 L 3.072,2.829 L 3.073,2.886 L 3.144,2.921 L 3.177,2.875 L 3.21,2.921 L 3.264,2.938 L 3.23,2.984 L 3.231,3.04 L 3.302,3.075 L 3.335,3.029 L 3.368,3.075 L 3.422,3.092 L 3.388,3.138 L 3.389,3.194 L 3.46,3.229 L 3.493,3.183 L 3.526,3.229 L 3.58,3.246 L 3.547,3.292 L 3.547,3.349 L 3.493,3.331 L 3.44,3.349 L 3.44,3.292 L 3.406,3.246 L 3.46,3.229 L 3.389,3.194 L 3.335,3.176 L 3.282,3.194 L 3.282,3.138 L 3.248,3.092 L 3.302,3.075 L 3.231,3.04 L 3.177,3.022 L 3.124,3.04 L 3.124,2.984 L 3.09,2.938 L 3.144,2.921 L 3.073,2.886 L 3.019,2.868 L 2.966,2.886 L 2.966,2.829 L 2.932,2.784 L 2.986,2.767 L 2.915,2.732 L 2.861,2.714 L 2.808,2.732 L 2.808,2.675 L 2.774,2.63 L 2.828,2.613 L 2.757,2.578 L 2.703,2.56 L 2.65,2.578 L 2.65,2.521 L 2.616,2.476 L 2.6,2.424 L 2.546,2.406 L 2.493,2.424 L 2.421,2.459 L 2.475,2.476 L 2.442,2.521 L 2.442,2.578 L 2.388,2.56 L 2.335,2.578 L 2.263,2.613 L 2.317,2.63 L 2.284,2.675 L 2.284,2.732 L 2.23,2.714 L 2.177,2.732 L 2.105,2.767 L 2.159,2.784 L 2.126,2.829 L 2.126,2.886 L 2.072,2.868 L 2.019,2.886 L 1.947,2.921 L 2.001,2.938 L 1.967,2.984 L 1.968,3.04 L 1.914,3.022 L 1.861,3.04 L 1.789,3.075 L 1.843,3.092 L 1.81,3.138 L 1.81,3.194 L 1.756,3.176 L 1.703,3.194 L 1.631,3.229 L 1.685,3.246 L 1.652,3.292 L 1.652,3.349 L 1.598,3.331 L 1.545,3.349 L 1.424,3.275 C 1.441,3.331 1.496,3.528 1.575,3.466 L 2.546,2.515"
   id="path249"
   style="fill:#000000;fill-opacity:1" />
</svg>